# xmcd
#
# Track frame offsets: 
#        150
#        23703
#        53296
#        66616
#        80131
#        97176
#        121710
#        137200
#        150294
#        168872
#        184872
#        204334
#        218632
#        240461
#        259551
#        277692
#
# Disc length: 4095 seconds
#
# Revision: 0
# Processed by: cddbd v1.5.2PL0 Copyright (c) Steve Scherf et al.
# Submitted via: ExactAudioCopy v1.0b3
#
DISCID=ce0ffd10
DTITLE=Roxy Music - Essential
DYEAR=2011
DGENRE=Pop
TTITLE0=Re-make - Re-model
TTITLE1=If there is something
TTITLE2=Virginia plain
TTITLE3=Pyjarama
TTITLE4=Editions of you
TTITLE5=In every dream home a heartache
TTITLE6=Street life
TTITLE7=All I want is you
TTITLE8=Love is the drug
TTITLE9=Angel eyes
TTITLE10=Dance away
TTITLE11=In the midnight hour
TTITLE12=Oh yeah!
TTITLE13=Avalon
TTITLE14=Do the strand (Live at the Apollo in Glasgow)
TTITLE15=Jealous guy
EXTD=
EXTT0=
EXTT1=
EXTT2=
EXTT3=
EXTT4=
EXTT5=
EXTT6=
EXTT7=
EXTT8=
EXTT9=
EXTT10=
EXTT11=
EXTT12=
EXTT13=
EXTT14=
EXTT15=
PLAYORDER=
